<svg xmlns="http://www.w3.org/2000/svg" xmlns:xlink="http://www.w3.org/1999/xlink" width="728" height="206.4" viewBox="0 0 910 258">
  <defs>
    <style>
      .cls-1 {
        font-size: 0.613px;
        fill: #fff;
        text-anchor: middle;
        font-family: "Josefin Sans";
        font-weight: 700;
      }

      .cls-2 {
        filter: url(#filter);
      }

      .cls-3 {
        fill: #834100;
      }

      .cls-3, .cls-4, .cls-5 {
        fill-rule: evenodd;
      }

      .cls-4 {
        fill: #004389;
      }

      .cls-5 {
        fill: #ff7800;
      }
    </style>
    <filter id="filter" filterUnits="userSpaceOnUse">
      <feGaussianBlur result="blur" stdDeviation="3.333" in="SourceAlpha"/>
      <feComposite result="composite"/>
      <feComposite result="composite-2"/>
      <feComposite result="composite-3"/>
      <feFlood result="flood" flood-color="#fff"/>
      <feComposite result="composite-4" operator="in" in2="composite-3"/>
      <feBlend result="blend" in2="SourceGraphic"/>
      <feBlend result="blend-2" in="SourceGraphic"/>
    </filter>
  </defs>
  <text id="Your_Partner_in_Academic_Success" data-name="Your Partner in Academic Success" class="cls-1" transform="translate(584.83 207.168) scale(56.21)"><tspan x="0">Your Partner in Academic Success</tspan></text>
  <text id="AIOU_CAFÉ" data-name="AIOU CAFÉ" class="cls-1" transform="translate(587.72 158.136) scale(180.914)"><tspan x="0">AIOU CAFÉ</tspan></text>
  <g class="cls-2">
    <path id="Cup_1" data-name="Cup 1" class="cls-3" d="M148.975,222.338a48.478,48.478,0,0,0,21.479-8.1c1.9-1.26,3.455-3.04,5.277-4.416a25.818,25.818,0,0,0,3.559-4.047,32.013,32.013,0,0,0,2.455-2.822c0.6-.9,1.079-2.9,2.332-3.066,0.9,0.79,4.268,1.334,5.646,1.84,3.982,1.461,11.052,4.338,12.15,8.463a3.191,3.191,0,0,1-.613,2.454,11.309,11.309,0,0,1-4.541,4.415c-4.767,2.963-10.692,4.845-16.569,6.747-1.86.6-3.77,0.773-5.523,1.349l-1.351.123c-1.092.348-2.567,0.663-3.682,0.981l-2.086.245c-1.788.562-3.31,0.458-5.4,0.982a89.872,89.872,0,0,1-11.783,1.594c-1.574.173-3.434,0.548-5.032,0.613-0.741.031-2.207-.108-2.945,0a18.057,18.057,0,0,1-4.419.246,12.107,12.107,0,0,0-3.313.245l-1.105-.123c-0.779.07-2.3,0.126-3.068,0.246-1.389.214-2.854-.364-4.419-0.123a26.8,26.8,0,0,1-6.75-.245l-0.859.122a18.035,18.035,0,0,1-2.455-.245,5.326,5.326,0,0,0-1.1.123c-4.945-.614-10.893-0.6-15.588-1.718h-1.6c-0.866-.216-2.379-0.411-3.191-0.613H93.009c-5.128-1.248-10.65-2.041-15.464-3.434-0.934-.271-1.636-0.091-2.577-0.368-1.861-.55-3.96-1.013-5.891-1.718-3.553-1.3-7.091-2.331-10.555-3.679A66.928,66.928,0,0,1,50.052,214c-2.617-1.487-5.32-3.123-6.873-5.642a6.072,6.072,0,0,1,0-6.256c0.8-1.151,2.332-1.829,3.559-2.576a43.513,43.513,0,0,1,8.714-3.68,15.469,15.469,0,0,1,3.191-1.1c0.438,0.719,1.125,1.29,1.6,1.963,3.593,5.135,7.172,10.128,12.15,13.86,1.054,0.79,1.963,1.964,3.068,2.7,0.709,0.471,1.339.652,2.086,1.1,0.2,0.122.418,0.5,0.614,0.613l1.1,0.368,0.491,0.613h0.491c0.8,0.33,1.547,1,2.332,1.35,0.562,0.247.937,0.115,1.473,0.368a35.328,35.328,0,0,0,12.028,3.557c-0.22-.936-1.134-0.8-1.841-1.227-1.4-.847-2.884-1.571-4.3-2.453-3.48-2.175-6.774-4.6-10.064-6.992-1.53-1.112-2.763-2.647-4.3-3.8a31.188,31.188,0,0,1-3.436-3.68,58.817,58.817,0,0,1-5.278-6.378c-0.533-.743-1.31-1.455-1.841-2.208a79.333,79.333,0,0,1-7.978-14.965c-1.669-3.984-2.5-8.612-3.682-13-0.873-3.235-.471-6.892-1.227-10.3q0.062-.613.123-1.227c-0.408-2.306.174-5.549-.245-7.727a10.893,10.893,0,0,1,0-3.68l-0.123-1.227q0.061-3.066.123-6.133c1.174-4.9,3.95-6.96,7.487-9.445a16.76,16.76,0,0,1,1.35-1.1,19.237,19.237,0,0,0,2.087-.981l0.736-.981a8.081,8.081,0,0,1,1.473-.368c1.5-.553,3.005-0.93,4.664-1.472,7.586-2.48,16.841-2.921,24.792-4.661l0.859,0.123c2.285-.426,4.99-0.263,6.873-0.736l1.1,0.122c2.816-.556,5.972-0.079,8.346-0.49a22.009,22.009,0,0,1,3.559-.123,5.341,5.341,0,0,0,1.841.245,17.345,17.345,0,0,1,5.892,0l0.859-.122a10.916,10.916,0,0,1,2.332.245,9.707,9.707,0,0,0,2.454-.123,7.042,7.042,0,0,1,.86.246l1.35-.123c0.648,0.133,1.49.216,2.086,0.368h1.964c0.6,0.136,1.688.242,2.209,0.368l1.227-.123c4.56,0.77,10.591,1.051,14.851,2.453,1.314,0.433,4.42.433,5.155,0.982a2.386,2.386,0,0,1,.245.49l7.732,2.208c3.017,0.931,5.96,1.362,8.715,2.453,0.523,0.208.987,0.741,1.472,0.982,0.5,0.248.962,0.107,1.473,0.368,0.189,0.1.42,0.5,0.614,0.613,1.445,0.864,2.923,1.3,4.3,2.208l0.491,0.613c2.486,1.536,5.1,3.7,6.26,6.5,0.983,2.37.735,5.611,0.613,8.1a2.255,2.255,0,0,0,.737.122c1.061-.8,2.592-0.519,4.173-0.858,3.378-.726,7.106.456,9.818,1.472,7.987,2.992,12.53,8.609,15.465,16.682,0.859,2.364,1.869,6.648,1.35,9.444L222,173.4c-0.572,2.48-.711,5.714-1.719,8.1-3.146,7.436-7.863,12.647-15.71,15.455a20.89,20.89,0,0,1-9.818.981,26.346,26.346,0,0,1-8.837-3.557c-0.936-.6-2.333-2.551-3.437-2.7a4.493,4.493,0,0,1-.736,1.1c-0.812,1.31-1.314,2.6-2.086,3.925l-0.491.368c-0.44.619-.67,1.215-1.105,1.84l-0.982.858a62.642,62.642,0,0,1-15.955,15.21c-2.924,1.938-6.024,3.586-9.082,5.4C151.152,220.9,149.136,221.126,148.975,222.338Zm-36.329-99.723c-0.7.412-1.744-.007-2.454,0.123-2.832.516-5.627,0.178-8.346,0.736l-0.737-.123c-2.814.513-6.221,0.595-9.2,1.349l-3.682.368c-3.046.85-6.629,1.27-9.573,2.208l-1.227.123c-2.107.7-4.407,1.595-6.382,2.33-3.258,1.214-5.147,1.845-7.609,3.8a3.205,3.205,0,0,0-1.35,3.557c0.764,2.339,3.2,3.213,5.277,4.293a73.112,73.112,0,0,0,8.837,3.68c1.441,0.518,2.723.623,4.173,1.1,3.868,1.282,8.355,1.962,12.519,3.066a13.365,13.365,0,0,0,1.473,0c0.6,0.131,1.484.464,2.087,0.614h1.6c1.665,0.414,3.925.526,5.646,0.981h1.718a4.793,4.793,0,0,0,1.473.245,9.761,9.761,0,0,1,3.191.368l1.227-.123a18.238,18.238,0,0,0,4.787.368,21.213,21.213,0,0,1,4.541.368c0.867,0.1,1.9-.3,2.823-0.122a17.665,17.665,0,0,0,5.277,0,2.4,2.4,0,0,1,.737.245,8.631,8.631,0,0,0,2.086-.245c0.744-.116,1.63.252,2.332,0.122,1.447-.268,3.4-0.083,4.664-0.245,4.2-.539,8.937-0.478,13.01-1.472l1.963-.123c1.013-.242,2.4-0.48,3.437-0.735h0.982c5.132-1.588,10.572-2.382,15.219-4.294,2.837-1.167,6.306-1.784,7.364-4.661,0.637-1.733-.854-3.436-1.719-4.17a30.378,30.378,0,0,0-7.363-4.539c-1.057-.461-2.079-0.55-3.192-0.981-2.68-1.038-5.832-2.1-8.714-3.066-0.9-.3-1.665-0.1-2.577-0.368-2.414-.7-5.406-1.32-7.978-1.963h-1.227c-0.477-.115-1.118-0.376-1.6-0.491H144.68c-3.569-.953-7.3-0.968-11.169-1.717l-1.227.123c-1.126-.257-2.928-0.222-4.173-0.491l-1.228.123C122.3,122.486,117.4,122.933,112.646,122.615ZM62.694,148.864a4.021,4.021,0,0,0-1.473,1.472c-0.534,1.576-.229,5.275.123,7.114l-0.123.982c0.322,1.721.177,3.63,0.614,5.4,0.994,4.025,1.559,8.081,3.068,11.653a67.2,67.2,0,0,0,3.927,8.708c2.147,3.528,4.466,6.822,6.873,10.059a50,50,0,0,0,10.187,9.69c0.391,0.281.712,0.833,1.1,1.1,1.505,1.036,3,1.8,4.541,2.821,0.192,0.127.4,0.507,0.614,0.613a29.85,29.85,0,0,1,2.946,1.349,7.723,7.723,0,0,0,.982.736c0.53,0.218.872,0.116,1.35,0.368a41.666,41.666,0,0,0,4.787,2.331c1.906,0.691,3.882,1.178,5.768,1.717l2.823,0.368c3.718,1.222,8.712,1.174,12.887,1.349a22.266,22.266,0,0,0,5.4-.245h1.35c1.824-.425,3.764-0.36,5.645-0.859a91.756,91.756,0,0,0,11.783-3.679c10.376-4.319,18.85-12.286,24.915-20.975,1.274-1.827,2.032-3.791,3.191-5.765a51.087,51.087,0,0,0,4.786-11.653v-0.981c0.29-1.123.7-2.415,0.982-3.557v-1.227a29.633,29.633,0,0,0,.859-8.341,6.134,6.134,0,0,1,.246-1.1,27.473,27.473,0,0,0-.246-6.992,1.369,1.369,0,0,0-.982-0.368c-1.906-1.32-4.923,1.3-5.277,2.576L176.1,157.45a2.235,2.235,0,0,1,.123.859c-0.4,1.916-.208,4.249-0.736,6.378v1.718a88.239,88.239,0,0,1-4.173,13.615c-4.462,10.373-13.143,18.33-22.46,23.919-0.942.564-1.941,0.726-2.946,1.226a59.952,59.952,0,0,1-5.891,2.576c-0.86.314-1.58,0.213-2.455,0.491-2.216.7-4.823,1.037-7.241,1.594a16.236,16.236,0,0,1-1.841,0,6.308,6.308,0,0,1-1.718.246l-1.228.122a20.007,20.007,0,0,1-4.541-.122l-1.35.122c-0.7-.14-1.609-0.2-2.332-0.368h-1.718c-3.095-.774-6.221-1.043-9.082-2.085a53.953,53.953,0,0,1-9.083-3.925c-0.434-.26-0.923-0.221-1.35-0.491a61.28,61.28,0,0,1-17.428-16.068,45.383,45.383,0,0,1-4.909-7.85c-1.187-2.67-2.3-5.393-3.314-8.219-0.91-2.526-1.154-5.313-1.841-7.972-0.725-2.809-.121-5.682-0.736-8.464-0.253-1.144.146-2.3-.246-3.189A5.442,5.442,0,0,0,62.694,148.864Zm133.9,5.52c-1.177.719-4.4-.007-5.278,1.227-0.6.849-.323,4.628-0.491,5.887l0.123,1.1c-0.4,2.314-.545,5.583-1.1,7.973v1.349c-0.477,1.755-.935,3.853-1.595,5.643a12.628,12.628,0,0,0-1.227,3.925c1.163,0.777,1.835,2.228,2.945,3.066a17.18,17.18,0,0,0,6.751,3.312c2.539,0.6,5.251-.966,6.75-1.84,3.846-2.241,5.752-5.31,7.241-9.935a12.424,12.424,0,0,0,.614-5.643c-0.207-1.029.089-2.4-.246-3.557C209.062,159.929,204.927,154.586,196.6,154.384ZM95.587,165.914a9.26,9.26,0,0,1-7.364-7.85H87.732c-0.488,2.129-1.507,4.328-3.068,5.4-0.852.583-3.868,1.241-4.05,2.208,2,1.194,4.261,2.231,5.523,4.17,0.511,0.785,1.016,3.733,1.841,3.925,1.45-2.348,1.484-4.218,3.927-5.765C92.754,167.461,95.448,166.946,95.587,165.914Zm29.579-5.152c-0.321,1.634.524,3.56,0.982,4.907,1.747,5.142,5.275,12.977-.123,16.682a9.836,9.836,0,0,1-4.173,1.471c-1.754.324-3.707-1.067-4.541-1.839a7.3,7.3,0,0,1-1.964-2.454c-1.843-4.359,1.3-9.878,2.455-13.37a14.155,14.155,0,0,0,.614-4.783,1.283,1.283,0,0,0-.737-0.246c-0.967,2.049-2.9,3.272-4.418,4.784-1.743,1.737-3.8,3.833-4.787,6.256q-0.429,1.533-.859,3.066a10.819,10.819,0,0,0,.491,4.907,14.1,14.1,0,0,0,7,8.831c0.5,0.3,1.045.229,1.6,0.491,1.269,0.6,4.345,1.616,6.136,1.226a27.288,27.288,0,0,0,5.278-1.226c5.082-2.294,10.192-9.424,7-16.805-1.448-3.344-4-6.011-6.382-8.463a23.016,23.016,0,0,1-3.191-3.435h-0.368Zm79.777,57.283c0.226,1.9.83,6.789,0.245,8.341-2.346,1.046-4.587,2.779-6.873,3.925-0.5.249-.875,0.131-1.35,0.368a106.476,106.476,0,0,1-11.414,4.415c-5.222,1.868-10.961,2.479-16.569,3.926-2.151.554-4.395,0.563-6.382,1.1-2.186.593-4.506,0.229-6.751,0.736-1.672.377-3.828,0.441-5.523,0.735l-0.736-.122a13.361,13.361,0,0,1-4.173.368c-1.164-.19-2.587.39-3.436,0.245a11.7,11.7,0,0,0-2.087.245,13.338,13.338,0,0,1-1.964-.122,5.831,5.831,0,0,1-2.332.245,7.213,7.213,0,0,0-1.963-.123,14.929,14.929,0,0,1-4.541.123c-1.375-.234-3.022.369-4.3,0.123a12.74,12.74,0,0,0-2.332-.246,2.312,2.312,0,0,1-.859.123c-4.311-.837-8.495.1-12.4-0.859l-3.559-.122c-1.628-.434-3.778-0.458-5.4-0.859h-1.6c-2.345-.546-4.935-0.39-7.364-0.981-4.406-1.073-9.382-1.581-13.5-2.821-1.359-.409-2.609-0.327-3.927-0.736-5.208-1.615-10.644-2.859-15.71-4.784-2.692-1.023-5.53-2.239-8.223-3.434-0.513-.228-1.076-0.763-1.6-0.982a49.69,49.69,0,0,1-6.628-3.68,6.53,6.53,0,0,1-2.087-1.349c-0.8-1.056.051-5.019-.245-6.5a2.947,2.947,0,0,1,.245-1.717,0.628,0.628,0,0,1,.368-0.123c1.27,1.715,4.14,3.082,6.014,4.293l0.368,0.491,1.1,0.368c5.435,3.583,12.372,5.92,19.024,8.218,1.13,0.391,2.073.333,3.191,0.736,4.183,1.51,9,2.344,13.5,3.68a16.413,16.413,0,0,0,1.841.123c2.775,0.65,6.434,1.513,9.328,1.962a4.238,4.238,0,0,1,.859-0.122c2.071,0.44,4.4.626,6.628,1.1l0.982-.123,1.35,0.368a3.031,3.031,0,0,1,.982-0.123c2.024,0.46,4.794.442,6.873,0.859l0.859-.123a15.25,15.25,0,0,1,2.209.245l1.473-.122a26.581,26.581,0,0,0,7.609.245,6.771,6.771,0,0,1,.737.245c0.9,0.162,1.906-.155,2.823,0a9.694,9.694,0,0,0,2.086-.245,26.611,26.611,0,0,1,3.068,0,18.752,18.752,0,0,0,4.787-.123c1.5-.3,3.191.082,4.664-0.245l3.682-.123c0.964-.218,2.312-0.319,3.314-0.49a16.393,16.393,0,0,0,1.963,0c2.286-.524,4.829-0.288,7.241-0.859,5.154-1.219,11.143-1.52,15.833-2.821,7.846-2.177,15.37-4.269,22.215-7.36a36.838,36.838,0,0,0,5.768-3.434C203.172,219.561,203.885,218.281,204.942,218.045Z"/>
    <path id="Leaves_1" data-name="Leaves 1" class="cls-4" d="M120.228,13.069h0.5c0.506,0.786,1.316,1.458,1.858,2.227a36.388,36.388,0,0,1,6.069,12.993c0.379,1.537.815,5.076,0.372,6.806a43.62,43.62,0,0,1-1.982,6.558,5.779,5.779,0,0,1-.619.742c-0.3.466-.311,1.023-0.62,1.485-0.644.966-1.392,2.007-2.106,2.97-1.23,1.66-2.9,3.13-3.84,5.073h-0.247l-2.973-3.465c-2.367-3.37-6.416-11.942-5.079-17.571q0.061-1.052.124-2.1a51.751,51.751,0,0,1,1.982-6.311A42.752,42.752,0,0,1,118,15.544C118.618,14.645,119.625,14,120.228,13.069ZM100.284,36.827a1.042,1.042,0,0,1,.62.124c1.72,0.626,4.712,4.092,5.822,5.568,0.486,0.646,1.276,1.186,1.734,1.856a42.032,42.032,0,0,1,4.459,8.662c0.94,2.488,1.371,5.291,2.106,7.919,0.357,1.275.243,2.338,0.62,3.589,1.468,4.882,2.845,9.894,4.087,14.849q0.124,1.361.248,2.722a18.1,18.1,0,0,1,.5,5.2q0.123,1.114.248,2.227a14.371,14.371,0,0,0-.124,4.207,2.7,2.7,0,0,1-.248,1.114q0.061,0.557.124,1.114c-0.123.747-.369,2.224-0.5,2.97q0.061,0.619.124,1.237c-0.427,2.026-.215,4.086-0.619,6.064-0.19.929,0.252,2.06,0,3.217-0.3,1.379-.635,5.873-0.248,7.053h-0.248a9.182,9.182,0,0,1-3.84,0c0.444-.052.312,0.058,0.5-0.248,0.855-1.012.178-3.41,0.5-4.949,0.472-2.291.316-5.71,0.867-8.167a1.639,1.639,0,0,0-.124-0.742s0.194-2.488.248-2.723c0.461-1.983.2-3.973,0.619-6.063l-0.123-1.361a18.9,18.9,0,0,0-.372-6.929c-0.355-1.5-.2-2.716-0.619-4.083a37.37,37.37,0,0,0-4.955-10.765c-2.723-3.781-6.7-6.49-9.415-10.27C97.972,54.243,95.919,44.288,100.284,36.827Zm-6.689,1.732a22.458,22.458,0,0,1-1.363,4.95l-1.239.248c-2.066.974-4.327,1.685-6.565,2.6-2.45,1-4.913,2.639-7.185,3.836A78.293,78.293,0,0,0,61.635,60.956c-2.139,1.9-4.19,4.018-6.194,6.063-0.66.673-1.234,2.076-2.354,2.227-0.886-.868-3-1.673-3.1-3.217,0.578-.239,1.673-2.148,2.106-2.722a15.4,15.4,0,0,1,1.239-1.114c1.633-1.714,3.183-3.5,4.955-5.073A83.058,83.058,0,0,1,80.464,43.014C83.968,41.481,88.978,38.694,93.595,38.559Zm47.444,0h0.372a1.293,1.293,0,0,1,.247.743c0.534,0.747.193,1.95,0.5,2.97a14.238,14.238,0,0,1,.124,6.806c-0.421,1.817-.366,3.057-0.991,4.578-2.671,6.494-7.9,10.537-13.131,14.477l-0.867.99a18.8,18.8,0,0,0-3.716,3.465c-0.507.672-.881,1.795-1.735,2.1V74.073a8.282,8.282,0,0,0-.124-3.341,35.03,35.03,0,0,1,.372-4.083q-0.061-.557-0.124-1.114a51.785,51.785,0,0,1,.991-6.063A45.622,45.622,0,0,1,126.3,51.3a28.074,28.074,0,0,1,8.052-9.28,38.294,38.294,0,0,1,4.583-2.475C139.6,39.232,140.615,39.12,141.039,38.559Zm7.185,1.361a36.746,36.746,0,0,1,5.822,2.227c0.942,0.4,1.8.462,2.725,0.866,1.145,0.5,2.357,1.495,3.468,1.98a12.7,12.7,0,0,1,1.363.371,96.629,96.629,0,0,1,16.1,11.879,35.827,35.827,0,0,1,5.327,5.568c0.339,0.465,1.367,1.249,1.238,1.732a24.171,24.171,0,0,1-3.716,2.351,28.743,28.743,0,0,0-6.318-6.311c-1.268-.958-2.3-2.379-3.592-3.341A94.651,94.651,0,0,0,158.629,49.2a68.779,68.779,0,0,0-7.928-3.465c-0.95-.359-2.841-0.633-2.973-1.732C148.349,42.962,147.687,40.969,148.224,39.921Zm46.7,52.341a5.176,5.176,0,0,1,.744-1.609,27.382,27.382,0,0,0,.5-2.846,12.32,12.32,0,0,0-.124-3.712,4.828,4.828,0,0,0,.124-0.99c-0.425-2.067-.544-4.578-0.867-6.682a20.326,20.326,0,0,1,.62-6.187c1.548-5.06,3.1-8.668,6.813-11.508,1.262-.965,3.787-3.935,5.45-4.207,3.109,6.8,5.112,14.843,1.734,22.768-1.8,4.217-5.208,7.3-8.423,10.147a46.486,46.486,0,0,1-4.212,3.341C196.543,91.294,196.093,92.185,194.924,92.262ZM32.153,61.575h0.5c0.459,1.144,3.37,2.85,4.212,3.96,2.285,3.011,4.475,6.051,5.7,10.147,1.513,5.066-.273,12.48-1.486,17.447v1.856c-0.32,2.389.6,4.429,1.115,6.435a0.75,0.75,0,0,0-.248.247c-1.169-.607-1.9-1.767-2.849-2.6-4.715-4.134-8.579-8.539-10.777-15.22-0.587-1.785-1.208-7.318-.619-9.652a44.876,44.876,0,0,1,1.61-6.311C30.194,65.79,31.266,63.719,32.153,61.575Zm55.991,0.247c2.439-.042,5.322,1.1,7.185,1.856l2.23,0.619c5.994,2.56,10.433,8.318,13.007,14.354a47.82,47.82,0,0,1,1.858,6.063q0.061,0.8.124,1.609c0.736,2.647,1.615,7.331,1.115,10.023-0.192,1.032.246,2.6-.124,3.713a0.422,0.422,0,0,1-.248-0.124c-0.7-.745-0.931-1.968-1.487-2.846a28.49,28.49,0,0,0-5.078-5.94c-6.216-4.683-13.242-8.525-16.476-16.21a37.376,37.376,0,0,1-1.734-5.568l-0.248-2.846C87.96,65.137,87.687,62.913,88.144,61.822Zm62.062,0.619h0.371a1.31,1.31,0,0,1,.248.619c-0.489.825-.047,2.364-0.248,3.217-0.65,2.762-.969,5.542-1.982,7.919-3.894,9.145-13.118,11.656-19.572,18.066a32.586,32.586,0,0,0-4.088,4.95c-0.481.736-.483,1.769-1.362,2.1V98.573c0.619-.955.024-2.382,0.371-3.836,0.5-2.1.509-4.926,1.239-7.177a79.785,79.785,0,0,1,2.725-8.414,44.82,44.82,0,0,1,5.822-9.157l0.867-.619a24.291,24.291,0,0,1,9.539-5.692c1.017-.342,2.049-0.512,2.973-0.742C148.115,62.685,149.491,62.982,150.206,62.441Zm31.464,8.414c1.956,0.114,4.774,3.036,5.946,4.207,5.889,5.884,6.214,15.879,3.84,25.119q-0.061.867-.124,1.733c-0.585,2.084-1.04,4.22-1.734,6.31a22.719,22.719,0,0,0-1.239,3.713,1.322,1.322,0,0,0,.62.247,6.9,6.9,0,0,1,1.981-.5c0.886-.275,3.323-1.179,4.584-0.866,1.117,0.277,2.367.732,3.592,0.99v0.5a39.876,39.876,0,0,0-6.813,3.217c-1.109.606-2.246,0.839-3.344,1.485a33.7,33.7,0,0,0-7.928,6.434l-2.23-1.113v-0.619c1.465-1.037,3.047-4.518,4.088-6.187,5.06-8.113,8.356-19.575,3.716-30.44a25.268,25.268,0,0,0-4.583-7.053c-0.682-.715-2.893-2.177-2.973-3.217A13.149,13.149,0,0,0,181.67,70.855ZM56.309,80.383h0.867c0.412,0.684,2.563,3.548,2.354,4.083-0.266.721-1.23,1.2-1.734,1.732a38.238,38.238,0,0,0-3.345,3.836A38.335,38.335,0,0,0,48.628,102.9l-0.124,2.1c-0.692,2.919-.085,7.052.743,9.9,0.541,1.86.489,3.533,1.115,5.2,0.313,0.832.6,1.8,0.991,2.723s1.155,1.8,1.239,2.969A13.654,13.654,0,0,0,48.257,130a0.43,0.43,0,0,1-.248-0.123,9.831,9.831,0,0,1-2.23-1.362c-0.273-.18-0.566-0.071-0.867-0.247-1.852-1.082-3.665-2.641-5.451-3.836-0.765-.512-2.857-1.229-3.1-2.1a0.359,0.359,0,0,0,.124-0.124c1.8-.216,4.324-0.559,6.194,0,1.8,0.538,2.93,1.969,5.079,2.1a1.937,1.937,0,0,0,.124-0.618c-0.591-.782-0.392-1.756-0.743-2.846-0.606-1.884-.713-3.882-1.239-6.064-2.06-8.553-1.354-20.416,2.23-27.1a18.809,18.809,0,0,1,5.079-5.321C54.11,81.732,55.671,81.263,56.309,80.383Zm121.4,0.743h0.5c0.7,1.069,1.854,1.908,2.6,2.97a29.382,29.382,0,0,1,2.849,5.692c2.314,5.65.268,13.752-1.61,18.19a28.427,28.427,0,0,1-2.478,4.826c-0.342.519-.44,1.3-1.115,1.485v-0.124h-0.124c0.024-3.279-1.485-5.955-2.353-8.538-1.025-3.047-1.658-6.567-2.354-9.652a16.3,16.3,0,0,1,.372-4.331c0.551-2.315.656-4.152,1.486-6.063C176.113,84.113,177.287,82.705,177.706,81.126Zm-20.935,3.217c0.446,0.147.453,0.187,0.5,0.742-0.364.616-.475,2.76-0.744,3.588-0.855,2.635-1.319,5.063-2.353,7.424-3.007,6.863-9.511,12-17.095,14.354-3.168.982-6.307,0.862-9.291,1.608a1.858,1.858,0,0,1-.247-0.5c0.479-.715.225-1.882,0.5-2.846l1.734-6.063c2.2-5.912,5.566-10.714,10.53-13.859a32.252,32.252,0,0,1,9.91-3.836C152.005,84.533,155.65,85.048,156.771,84.343Zm-76.059.124c13.844,1.228,23.127,7.678,27.376,18.933a27.359,27.359,0,0,1,1.858,8.29,2.655,2.655,0,0,1-.867.124c-0.873-.4-2.963.077-4.335-0.248a50.9,50.9,0,0,1-5.7-1.237c-8.072-2.941-13.011-8.5-16.352-16.21C81.945,92.39,79.728,86.775,80.712,84.467Zm138.616,1.361a19.067,19.067,0,0,1-1.239,5.939c-2.035,6.119-4.053,9.711-9.043,12.869-1.511.956-4.9,3.125-7.061,2.846-1.081-.14-2.387.566-3.716,0.247-1.151-.276-2.79-0.468-3.84-0.742-0.877-.229-1.841.059-2.477-0.371a0.447,0.447,0,0,1-.124-0.248c1.254-.834,2-2.332,2.849-3.588,0.827-1.233,2.026-2.364,2.849-3.589,0.653-.972,1.073-1.889,1.734-2.846,0.723-1.046,1.96-1.843,2.725-2.846C205.643,88.707,211.723,86.74,219.328,85.828ZM60.768,89.664c1.011,0.426,1.9,3.936,2.354,5.2,2.817,7.9-1.223,16.13-4.212,21.9-0.758,1.464-.947,5.763-2.725,5.94-3.943-6.926-4.39-17.707-.867-25.367a30.7,30.7,0,0,1,3.221-5.2C59.19,91.267,60.152,90.582,60.768,89.664ZM19.27,93c2.162,0.15,5.333,1.628,6.937,2.475a30.92,30.92,0,0,1,12.883,12c1.441,2.326,2.571,4.763,3.964,7.053,0.672,1.105.989,2.33,1.858,3.217a0.429,0.429,0,0,1-.124.248c-0.821.524-1.906,0.014-2.973,0.247a14.43,14.43,0,0,1-8.176-.742,19.425,19.425,0,0,1-2.725-.99c-5.72-3.571-8.505-7.421-10.777-14.478C19.533,100.16,18.529,95.181,19.27,93Zm143.323,2.722a0.6,0.6,0,0,1,.372.124c1.414,0.544,3.047,2.425,4.088,3.465,4.521,4.517,8.782,13.432,6.565,21.9-0.391,1.5-.379,3.106-0.867,4.083-1.129-.749-2.946-0.689-4.336-1.113-3.207-.98-6.759-1.595-9.786-2.846a24.108,24.108,0,0,0-1.115-4.084c-0.233-.779-0.215-1.776-0.371-2.475-0.427-1.905.22-3.688,0.247-5.444a12.613,12.613,0,0,1,.62-2.722A42.979,42.979,0,0,1,162.593,95.727ZM79.1,120.227a15.688,15.688,0,0,0-4.088.742c-2.776.719-5.2,0.829-7.68,1.733a19.1,19.1,0,0,1-4.583,1.485v-0.248c-0.293-.475.1-1.4,0.124-2.1a17,17,0,0,1,1.363-5.321c2.162-5.6,4.624-9.808,9.414-12.745,1.285-.789,2.7-2.23,4.46-2.475,1.578,2.909,2.869,9.165,2.106,12.869L80.34,115.4c-0.095.4-.389,1.161-0.5,1.609l-0.124,1.608A5.753,5.753,0,0,0,79.1,120.227Zm128.954-6.806c2.428,0.211,5.808-.272,8.052.619a22.967,22.967,0,0,1-2.353,4.95c-3.936,7.208-7.905,10.776-16.476,13.363a21.265,21.265,0,0,1-3.84.99,19.979,19.979,0,0,0-5.079-5.444c-0.683-.5-2.8-1.668-2.973-2.475a27.149,27.149,0,0,0,2.106-1.732c1.8-1.261,3.907-2.057,5.7-3.341,2-1.436,3.872-3.165,6.07-4.455a26.415,26.415,0,0,1,5.822-2.1C206.128,113.5,207.414,113.9,208.055,113.421ZM20.137,123.568c7.256,0.134,12.583,1.4,17.59,4.331,1.507,0.881,2.684,2.485,4.088,3.464,1,0.7,4.244,2.9,4.336,4.208-0.615.871-.182,1.668-0.372,2.6a42.4,42.4,0,0,0-.248,8.043,1.954,1.954,0,0,1-.619.124c-0.726-.491-1.923-0.322-2.849-0.619a65.179,65.179,0,0,1-6.318-2.351,28.789,28.789,0,0,1-12.511-10.889c-0.489-.751-0.657-1.566-1.115-2.351-0.876-1.5-2.312-4.164-2.354-6.311A1.337,1.337,0,0,0,20.137,123.568Zm10.282,39.349a13.742,13.742,0,0,1,4.088.742,9.783,9.783,0,0,1,6.07,8.786,1.641,1.641,0,0,0,.991.247c0.438-.27.939,0.13,1.61,0,0.8-.154,4.8-0.237,5.2.248a6.231,6.231,0,0,1,.867,2.722,2.285,2.285,0,0,1-.743.124c-0.487-.273-1.841.207-2.477,0.123l-0.372-.247a7.285,7.285,0,0,0-2.23.247l-0.619-.123a7.706,7.706,0,0,0-2.6.123c-1.137,1.984-2.293,3.892-4.336,4.95a8.746,8.746,0,0,1-4.955.866,6.406,6.406,0,0,1-1.363.124c-4.579-1.156-7.5-4-8.3-8.909-0.6-3.648,3.2-8.183,5.7-9.281C27.883,163.25,29.609,163.412,30.419,162.917Z"/>
    <path id="Coffee_1" data-name="Coffee 1" class="cls-5" d="M159.838,136.987c-1.921-.252-3.788-1.686-5.305-2.411a18.34,18.34,0,0,0-2.089-.482c-2.127-.748-4.649-1.58-6.912-2.249l-1.929-.161c-0.943-.239-2.1-0.572-3.054-0.8H138.62c-5.742-1.534-17.088-1.934-22.986-.8l-0.965-.16c-1.816.355-3.363,0.309-4.661,0.642l-2.572.161c-1.3.327-3.1,0.7-4.34,1.125-5.1,1.744-14.711,2.962-15.11,9,0.339,0.438.329,1.122,0.643,1.607,0.483,0.744,1.437,1.024,1.768,1.928H90.237v0.161c-3.175-1.139-6.221-2.476-8.037-4.982-0.79-1.089-1.834-2.688-.8-4.338,2.221-3.558,8.1-4.8,12.538-6.106,2.245-.661,4.5-0.757,6.751-1.285h1.929c2.883-.673,5.781-0.4,8.841-0.964,1.256-.233,3.6.24,5.3,0a34.822,34.822,0,0,1,9.484.482c0.984,0.184,3.031-.225,4.018,0,4.27,0.972,8.973,1.593,12.86,2.731l3.054,0.482a82.837,82.837,0,0,1,10.448,4.339C157.717,135.479,159.62,135.575,159.838,136.987Zm-42.114-4.178c6.732,0.1,10.735,2.656,14.948,5.624,1.109,0.78,2.218,2.048,3.376,2.731,1.38,0.815,2.855,1.475,4.179,2.25l3.858,1.285c1.443,0.364,2.684-.548,3.054.643h-0.16V145.5c-2,.245-3.414.4-5.305,0.8a2.071,2.071,0,0,1-.964-0.161,3.729,3.729,0,0,0-1.286.161c-0.84.028-1.8-.192-2.572-0.161-1.166.048-3.175-.917-4.18-1.285-1.2-.442-2.255-0.46-3.375-0.964-2.883-1.3-5.728-3.008-9-4.017-4.16-1.283-8.6-.424-8.2,4.5a5.683,5.683,0,0,1,2.09,2.41,2.846,2.846,0,0,1-1.607.321,6.55,6.55,0,0,1-3.215-.16c-3.07-.784-6.707-1.6-6.912-5.142a7.017,7.017,0,0,0,.161-1.286,9.236,9.236,0,0,1,.964-1.928c1.24-1.831,5.3-3.622,7.555-4.5l1.768-.16c0.547-.18,1.531-0.653,2.09-0.8C115.979,132.863,117.005,133.27,117.724,132.809Z"/>
  </g>
</svg>
