<svg xmlns="http://www.w3.org/2000/svg" width="371.2" height="107.2" viewBox="0 0 464 134">
  <defs>
    <style>
      .cls-1 {
        font-size: 0.613px;
        text-anchor: middle;
        font-family: "Josefin Sans";
        font-weight: 700;
      }

      .cls-2 {
        fill: #834100;
      }

      .cls-2, .cls-3, .cls-4 {
        fill-rule: evenodd;
      }

      .cls-3 {
        fill: #004389;
      }

      .cls-4 {
        fill: #ff7800;
      }
    </style>
  </defs>
  <text id="Your_Partner_in_Academic_Success" data-name="Your Partner in Academic Success" class="cls-1" transform="translate(294.663 107.599) scale(29.272 29.194)"><tspan x="0">Your Partner in Academic Success</tspan></text>
  <text id="AIOU_CAFÉ" data-name="AIOU CAFÉ" class="cls-1" transform="translate(296.168 82.133) scale(94.213 93.963)"><tspan x="0">AIOU CAFÉ</tspan></text>
  <path id="Cup_1" data-name="Cup 1" class="cls-2" d="M67.686,108.726a25.285,25.285,0,0,0,11.185-4.2c0.988-.654,1.8-1.579,2.748-2.293a13.469,13.469,0,0,0,1.854-2.1,16.567,16.567,0,0,0,1.278-1.465c0.314-.467.562-1.506,1.214-1.593a14.613,14.613,0,0,0,2.94.956c2.074,0.759,5.756,2.253,6.328,4.4a1.654,1.654,0,0,1-.32,1.274,5.88,5.88,0,0,1-2.365,2.293,39.817,39.817,0,0,1-8.629,3.5c-0.968.313-1.963,0.4-2.876,0.7l-0.7.064c-0.569.181-1.337,0.344-1.917,0.509l-1.087.128c-0.931.291-1.724,0.238-2.812,0.51a47.045,47.045,0,0,1-6.136.828c-0.82.09-1.789,0.284-2.62,0.318-0.386.016-1.15-.056-1.534,0a9.388,9.388,0,0,1-2.3.128,6.338,6.338,0,0,0-1.726.127l-0.575-.064c-0.405.037-1.2,0.066-1.6,0.128-0.723.111-1.486-.189-2.3-0.064a14,14,0,0,1-3.515-.127l-0.447.063a9.282,9.282,0,0,1-1.278-.127,2.794,2.794,0,0,0-.575.064c-2.575-.319-5.673-0.313-8.117-0.892H40.97c-0.451-.113-1.239-0.214-1.662-0.319H38.541c-2.671-.648-5.546-1.06-8.053-1.784-0.486-.14-0.852-0.046-1.342-0.191-0.969-.285-2.062-0.526-3.068-0.892-1.85-.672-3.693-1.21-5.5-1.911a34.888,34.888,0,0,1-4.41-2.293,9.45,9.45,0,0,1-3.579-2.931,3.146,3.146,0,0,1,0-3.249,5.841,5.841,0,0,1,1.854-1.338,22.666,22.666,0,0,1,4.538-1.911,8.054,8.054,0,0,1,1.662-.573c0.228,0.373.586,0.67,0.831,1.019a30.138,30.138,0,0,0,6.328,7.2c0.549,0.41,1.022,1.02,1.6,1.4,0.369,0.245.7,0.339,1.087,0.574,0.106,0.064.218,0.26,0.32,0.318l0.575,0.192,0.256,0.318h0.256c0.417,0.171.805,0.521,1.214,0.7,0.293,0.128.488,0.06,0.767,0.191a18.4,18.4,0,0,0,6.264,1.847c-0.115-.485-0.591-0.415-0.959-0.637-0.729-.439-1.5-0.815-2.237-1.274-1.812-1.129-3.528-2.389-5.241-3.631-0.8-.578-1.439-1.375-2.237-1.975a16.211,16.211,0,0,1-1.79-1.911,30.558,30.558,0,0,1-2.748-3.313c-0.277-.386-0.682-0.756-0.959-1.147a41.163,41.163,0,0,1-4.154-7.772A54.8,54.8,0,0,1,17.9,79.739c-0.455-1.68-.245-3.58-0.639-5.351l0.064-.637c-0.212-1.2.09-2.882-.128-4.014a5.642,5.642,0,0,1,0-1.911l-0.064-.637L17.194,64c0.611-2.546,2.057-3.615,3.9-4.905a8.616,8.616,0,0,1,.7-0.573,10.041,10.041,0,0,0,1.087-.51l0.383-.51a4.256,4.256,0,0,1,.767-0.191c0.779-.287,1.565-0.483,2.429-0.764,3.95-1.288,8.77-1.517,12.911-2.421l0.447,0.064c1.19-.221,2.6-0.136,3.579-0.382l0.575,0.064c1.466-.289,3.11-0.041,4.346-0.255a11.514,11.514,0,0,1,1.853-.064,2.793,2.793,0,0,0,.959.127,9.049,9.049,0,0,1,3.068,0l0.447-.064a5.724,5.724,0,0,1,1.214.127,5.077,5.077,0,0,0,1.278-.064,3.658,3.658,0,0,1,.447.127l0.7-.064c0.338,0.069.776,0.112,1.087,0.191H60.4c0.314,0.071.879,0.126,1.151,0.191l0.639-.064c2.374,0.4,5.515.546,7.734,1.274,0.684,0.225,2.3.225,2.684,0.51a1.236,1.236,0,0,1,.128.255l4.027,1.147c1.571,0.483,3.1.707,4.538,1.274,0.273,0.108.514,0.385,0.767,0.51s0.5,0.056.767,0.191c0.1,0.05.219,0.258,0.32,0.319,0.752,0.449,1.522.677,2.237,1.147l0.256,0.319a7.882,7.882,0,0,1,3.26,3.376,10.362,10.362,0,0,1,.32,4.2,1.173,1.173,0,0,0,.383.064,5.731,5.731,0,0,1,2.173-.446,9.587,9.587,0,0,1,5.113.764c4.16,1.554,6.526,4.472,8.054,8.664a11.173,11.173,0,0,1,.7,4.905q0.032,0.382.064,0.764a26.53,26.53,0,0,1-.895,4.2,13.409,13.409,0,0,1-8.181,8.027,10.911,10.911,0,0,1-5.113.51,13.758,13.758,0,0,1-4.6-1.848c-0.487-.311-1.215-1.325-1.79-1.4a2.335,2.335,0,0,1-.383.573c-0.423.68-.684,1.352-1.087,2.039L83.41,95.6c-0.229.322-.349,0.631-0.575,0.956L82.323,97a32.6,32.6,0,0,1-8.309,7.9c-1.522,1.007-3.137,1.863-4.73,2.8C68.82,107.981,67.77,108.1,67.686,108.726ZM48.768,56.932A3.753,3.753,0,0,1,47.489,57c-1.475.268-2.93,0.093-4.346,0.382l-0.383-.064c-1.466.267-3.24,0.309-4.794,0.7l-1.918.191c-1.586.441-3.452,0.66-4.985,1.147l-0.639.064c-1.1.362-2.3,0.828-3.324,1.21A12.4,12.4,0,0,0,23.138,62.6a1.663,1.663,0,0,0-.7,1.848c0.4,1.215,1.668,1.669,2.748,2.23a38.11,38.11,0,0,0,4.6,1.911c0.751,0.269,1.418.324,2.173,0.573,2.014,0.666,4.351,1.019,6.519,1.593a7.144,7.144,0,0,0,.767,0c0.31,0.068.773,0.241,1.087,0.319h0.831c0.867,0.215,2.044.274,2.94,0.51H45a2.5,2.5,0,0,0,.767.127,5.093,5.093,0,0,1,1.662.191l0.639-.064a9.544,9.544,0,0,0,2.493.191,11.039,11.039,0,0,1,2.365.191c0.452,0.053.99-.156,1.47-0.064a9.223,9.223,0,0,0,2.748,0,1.259,1.259,0,0,1,.383.127,4.492,4.492,0,0,0,1.087-.127c0.387-.06.849,0.131,1.214,0.064,0.753-.139,1.771-0.043,2.429-0.127a64.052,64.052,0,0,0,6.775-.764l1.023-.064c0.527-.126,1.248-0.249,1.79-0.382h0.511c2.673-.825,5.505-1.237,7.925-2.23,1.478-.606,3.284-0.927,3.835-2.421a2.155,2.155,0,0,0-.895-2.166,15.819,15.819,0,0,0-3.835-2.357c-0.55-.239-1.082-0.286-1.662-0.51-1.4-.539-3.037-1.093-4.538-1.593-0.466-.155-0.867-0.054-1.342-0.191-1.257-.364-2.815-0.685-4.154-1.019H67.047c-0.248-.06-0.582-0.2-0.831-0.255H65.449c-1.858-.5-3.8-0.5-5.816-0.892l-0.639.064c-0.586-.134-1.525-0.115-2.173-0.255l-0.639.064C53.792,56.865,51.242,57.1,48.768,56.932ZM22.754,70.565a2.093,2.093,0,0,0-.767.764,10.012,10.012,0,0,0,.064,3.7l-0.064.51c0.168,0.894.092,1.885,0.32,2.8a40.914,40.914,0,0,0,1.6,6.052,34.853,34.853,0,0,0,2.045,4.523c1.118,1.832,2.326,3.543,3.579,5.224a26,26,0,0,0,5.3,5.033c0.2,0.146.371,0.433,0.575,0.573,0.784,0.539,1.56.936,2.365,1.465a4.494,4.494,0,0,0,.32.319,15.423,15.423,0,0,1,1.534.7,4.052,4.052,0,0,0,.511.382,7.221,7.221,0,0,1,.7.191,21.637,21.637,0,0,0,2.493,1.21c0.992,0.359,2.022.612,3,.892l1.47,0.192a26.964,26.964,0,0,0,6.711.7,11.622,11.622,0,0,0,2.812-.127h0.7c0.95-.221,1.96-0.187,2.94-0.446a47.886,47.886,0,0,0,6.136-1.911A30.656,30.656,0,0,0,80.086,92.417c0.664-.949,1.058-1.969,1.662-2.994A26.48,26.48,0,0,0,84.24,83.37v-0.51c0.151-.583.366-1.254,0.511-1.848V80.376a15.367,15.367,0,0,0,.447-4.332,3.172,3.172,0,0,1,.128-0.573,14.219,14.219,0,0,0-.128-3.631,0.711,0.711,0,0,0-.511-0.191c-0.993-.686-2.564.673-2.748,1.338l-0.128,2.039a1.159,1.159,0,0,1,.064.446c-0.206.995-.109,2.207-0.383,3.313v0.892a45.673,45.673,0,0,1-2.173,7.072c-2.323,5.388-6.844,9.52-11.7,12.423-0.49.293-1.011,0.377-1.534,0.637a31.5,31.5,0,0,1-3.068,1.338c-0.448.162-.823,0.11-1.278,0.254-1.154.366-2.511,0.539-3.771,0.829a8.68,8.68,0,0,1-.959,0,3.3,3.3,0,0,1-.895.127l-0.639.064a10.449,10.449,0,0,1-2.365-.064l-0.7.064c-0.363-.073-0.838-0.1-1.214-0.191H50.3c-1.612-.4-3.24-0.542-4.73-1.083a28.171,28.171,0,0,1-4.73-2.039c-0.226-.135-0.481-0.115-0.7-0.255a31.879,31.879,0,0,1-9.076-8.346,23.551,23.551,0,0,1-2.556-4.077c-0.618-1.386-1.2-2.8-1.726-4.268-0.474-1.312-.6-2.76-0.959-4.141-0.378-1.459-.063-2.951-0.383-4.4a11.183,11.183,0,0,0-.128-1.656A2.835,2.835,0,0,0,22.754,70.565Zm69.731,2.867c-0.613.373-2.293,0-2.748,0.637-0.313.441-.168,2.4-0.256,3.058L89.545,77.7c-0.207,1.2-.284,2.9-0.575,4.141v0.7c-0.249.912-.487,2-0.831,2.931a6.56,6.56,0,0,0-.639,2.039c0.606,0.4.956,1.157,1.534,1.593a8.959,8.959,0,0,0,3.515,1.72c1.322,0.313,2.735-.5,3.515-0.956a8.225,8.225,0,0,0,3.771-5.16,6.436,6.436,0,0,0,.319-2.931,18.082,18.082,0,0,0-.128-1.848C98.977,76.312,96.824,73.537,92.485,73.432Zm-52.6,5.989a4.815,4.815,0,0,1-3.835-4.077H35.793a4.708,4.708,0,0,1-1.6,2.8c-0.444.3-2.014,0.645-2.109,1.147a8.1,8.1,0,0,1,2.876,2.166c0.266,0.407.529,1.938,0.959,2.039,0.755-1.22.773-2.191,2.045-2.994C38.409,80.224,39.812,79.956,39.883,79.421Zm15.4-2.676a5.35,5.35,0,0,0,.511,2.548c0.91,2.671,2.747,6.74-.064,8.664a5.132,5.132,0,0,1-2.173.764,3.183,3.183,0,0,1-2.365-.956,3.785,3.785,0,0,1-1.023-1.274c-0.96-2.264.677-5.131,1.278-6.944a7.337,7.337,0,0,0,.32-2.485,0.67,0.67,0,0,0-.383-0.127,9.65,9.65,0,0,1-2.3,2.485,10.7,10.7,0,0,0-2.493,3.249l-0.447,1.593a5.6,5.6,0,0,0,.256,2.548A7.328,7.328,0,0,0,50.046,91.4c0.262,0.154.544,0.119,0.831,0.255a6.437,6.437,0,0,0,3.2.637,14.23,14.23,0,0,0,2.748-.637c2.647-1.191,5.307-4.895,3.643-8.728a15.278,15.278,0,0,0-3.324-4.4,11.952,11.952,0,0,1-1.662-1.784H55.287ZM96.832,106.5c0.118,0.984.432,3.527,0.128,4.332-1.222.544-2.389,1.444-3.579,2.039-0.259.129-.456,0.068-0.7,0.191a55.5,55.5,0,0,1-5.944,2.293c-2.719.97-5.708,1.288-8.629,2.039-1.12.288-2.288,0.293-3.324,0.573-1.138.309-2.347,0.12-3.515,0.383-0.871.2-1.994,0.229-2.876,0.382l-0.383-.064a6.972,6.972,0,0,1-2.173.191c-0.606-.1-1.347.2-1.79,0.128a6.089,6.089,0,0,0-1.087.127,7,7,0,0,1-1.023-.064,3.034,3.034,0,0,1-1.214.128,3.759,3.759,0,0,0-1.023-.064,7.8,7.8,0,0,1-2.365.064c-0.716-.122-1.573.191-2.237,0.064a6.626,6.626,0,0,0-1.214-.128,1.2,1.2,0,0,1-.447.064c-2.245-.435-4.424.053-6.455-0.446l-1.854-.064c-0.848-.225-1.967-0.237-2.812-0.446H41.481c-1.221-.283-2.57-0.2-3.835-0.509-2.294-.558-4.886-0.822-7.031-1.466-0.707-.212-1.358-0.17-2.045-0.382-2.712-.839-5.543-1.485-8.181-2.485-1.4-.531-2.88-1.163-4.282-1.783-0.267-.119-0.56-0.4-0.831-0.51a25.869,25.869,0,0,1-3.451-1.911,3.423,3.423,0,0,1-1.087-.7c-0.414-.549.027-2.607-0.128-3.376a1.525,1.525,0,0,1,.128-0.892,0.323,0.323,0,0,1,.192-0.064,12.543,12.543,0,0,0,3.132,2.23l0.192,0.254,0.575,0.192c2.831,1.861,6.443,3.075,9.907,4.268,0.588,0.2,1.079.173,1.662,0.382,2.178,0.784,4.689,1.218,7.031,1.911a8.232,8.232,0,0,0,.959.064c1.445,0.338,3.35.786,4.858,1.019a2.2,2.2,0,0,1,.447-0.063c1.079,0.228,2.292.325,3.451,0.573l0.511-.064,0.7,0.192a1.55,1.55,0,0,1,.511-0.064c1.054,0.239,2.5.229,3.579,0.446l0.447-.064a7.9,7.9,0,0,1,1.151.128l0.767-.064a13.854,13.854,0,0,0,3.963.127,3.421,3.421,0,0,1,.384.128c0.47,0.084.993-.081,1.47,0a5.052,5.052,0,0,0,1.087-.128,13.964,13.964,0,0,1,1.6,0,9.852,9.852,0,0,0,2.493-.063c0.781-.155,1.662.042,2.429-0.128l1.917-.064c0.5-.113,1.2-0.165,1.726-0.254a8.676,8.676,0,0,0,1.023,0c1.19-.272,2.515-0.15,3.771-0.446,2.684-.634,5.8-0.79,8.245-1.466a80.6,80.6,0,0,0,11.569-3.822,19.261,19.261,0,0,0,3-1.784A4.624,4.624,0,0,1,96.832,106.5Z"/>
  <path id="Leaves_1" data-name="Leaves 1" class="cls-3" d="M52.716,0.036h0.258c0.264,0.408.685,0.757,0.968,1.157A18.875,18.875,0,0,1,57.1,7.941a9.74,9.74,0,0,1,.194,3.535,22.646,22.646,0,0,1-1.032,3.406,2.965,2.965,0,0,1-.323.386c-0.158.242-.162,0.531-0.323,0.771-0.336.5-.725,1.042-1.1,1.542a17.571,17.571,0,0,0-2,2.635H52.393l-1.548-1.8c-1.233-1.75-3.341-6.2-2.645-9.126q0.032-.546.065-1.093A26.958,26.958,0,0,1,49.3,4.92a22.183,22.183,0,0,1,2.258-3.6C51.877,0.854,52.4.519,52.716,0.036ZM42.33,12.375a0.543,0.543,0,0,1,.323.064c0.9,0.325,2.454,2.125,3.032,2.892,0.253,0.336.665,0.616,0.9,0.964a21.82,21.82,0,0,1,2.322,4.5c0.489,1.292.714,2.748,1.1,4.113,0.186,0.662.127,1.214,0.323,1.864,0.765,2.535,1.482,5.139,2.129,7.712L52.587,35.9a9.388,9.388,0,0,1,.258,2.7l0.129,1.157a7.451,7.451,0,0,0-.065,2.185,1.39,1.39,0,0,1-.129.578L52.845,43.1c-0.064.388-.192,1.155-0.258,1.542l0.065,0.643c-0.223,1.052-.112,2.122-0.322,3.149-0.1.483,0.131,1.07,0,1.671a12.7,12.7,0,0,0-.129,3.663H52.071a4.786,4.786,0,0,1-2,0c0.231-.027.162,0.03,0.258-0.129,0.445-.526.093-1.771,0.258-2.571,0.246-1.19.164-2.966,0.452-4.242a0.859,0.859,0,0,0-.065-0.386s0.1-1.292.129-1.414c0.24-1.03.1-2.064,0.323-3.149l-0.065-.707a9.786,9.786,0,0,0-.194-3.6c-0.185-.781-0.1-1.411-0.322-2.121a19.368,19.368,0,0,0-2.581-5.591c-1.418-1.964-3.487-3.371-4.9-5.334C41.126,21.421,40.057,16.25,42.33,12.375Zm-3.483.9a11.646,11.646,0,0,1-.71,2.571l-0.645.128c-1.076.506-2.253,0.875-3.419,1.35-1.276.519-2.559,1.371-3.742,1.992A40.775,40.775,0,0,0,22.2,24.908c-1.114.988-2.182,2.087-3.225,3.149a2.687,2.687,0,0,1-1.226,1.157c-0.462-.451-1.564-0.869-1.613-1.671a6.437,6.437,0,0,0,1.1-1.414,8.014,8.014,0,0,1,.645-0.578c0.85-.89,1.658-1.819,2.58-2.635a43.267,43.267,0,0,1,11.547-7.326C33.833,14.793,36.442,13.345,38.846,13.275Zm24.707,0h0.193a0.67,0.67,0,0,1,.129.386,5.75,5.75,0,0,1,.258,1.542,7.374,7.374,0,0,1,.064,3.535,14.417,14.417,0,0,1-.516,2.378c-1.391,3.373-4.115,5.473-6.838,7.519l-0.452.514a9.794,9.794,0,0,0-1.935,1.8,2.627,2.627,0,0,1-.9,1.093V31.72a4.3,4.3,0,0,0-.065-1.735,18.093,18.093,0,0,1,.194-2.121l-0.065-.578a26.786,26.786,0,0,1,.516-3.149,23.683,23.683,0,0,1,1.742-4.242,14.594,14.594,0,0,1,4.193-4.82,19.931,19.931,0,0,1,2.387-1.285A2.948,2.948,0,0,0,63.553,13.275ZM67.3,13.982a19.16,19.16,0,0,1,3.032,1.157c0.491,0.209.94,0.24,1.419,0.45,0.6,0.261,1.227.776,1.806,1.028a6.668,6.668,0,0,1,.71.193,50.331,50.331,0,0,1,8.386,6.17,18.6,18.6,0,0,1,2.774,2.892,2.029,2.029,0,0,1,.645.9,12.6,12.6,0,0,1-1.935,1.221,14.955,14.955,0,0,0-3.29-3.278c-0.661-.5-1.2-1.235-1.871-1.735A49.287,49.287,0,0,0,72.714,18.8,35.868,35.868,0,0,0,68.585,17c-0.495-.187-1.48-0.329-1.548-0.9C67.36,15.562,67.016,14.527,67.3,13.982Zm24.32,27.185A2.676,2.676,0,0,1,92,40.332a14.209,14.209,0,0,0,.258-1.478,6.387,6.387,0,0,0-.064-1.928,2.534,2.534,0,0,0,.064-0.514c-0.221-1.073-.283-2.378-0.451-3.47a10.525,10.525,0,0,1,.323-3.213c0.807-2.628,1.613-4.5,3.548-5.977,0.658-.5,1.972-2.044,2.838-2.185,1.618,3.531,2.663,7.709.9,11.825a15.525,15.525,0,0,1-4.387,5.27A24.211,24.211,0,0,1,92.841,40.4,2.285,2.285,0,0,1,91.615,41.167ZM6.85,25.229H7.108c0.239,0.594,1.755,1.48,2.193,2.057a16.222,16.222,0,0,1,2.967,5.27c0.788,2.631-.142,6.482-0.774,9.062v0.964a8.355,8.355,0,0,0,.581,3.342,0.394,0.394,0,0,0-.129.129,8.235,8.235,0,0,1-1.484-1.35A17.411,17.411,0,0,1,4.85,36.8a13.469,13.469,0,0,1-.323-5.013,23.251,23.251,0,0,1,.839-3.278C5.829,27.418,6.388,26.342,6.85,25.229Zm29.158,0.128a10.508,10.508,0,0,1,3.742.964l1.161,0.321c3.121,1.329,5.433,4.32,6.773,7.455a24.719,24.719,0,0,1,.968,3.149l0.065,0.835a14.354,14.354,0,0,1,.581,5.206,13.53,13.53,0,0,1-.064,1.928,0.221,0.221,0,0,1-.129-0.064,9.568,9.568,0,0,1-.774-1.478,14.822,14.822,0,0,0-2.645-3.085c-3.237-2.432-6.9-4.428-8.58-8.419a19.376,19.376,0,0,1-.9-2.892L36.072,27.8A5.1,5.1,0,0,1,36.008,25.357Zm32.319,0.321h0.194A0.679,0.679,0,0,1,68.65,26a6.239,6.239,0,0,0-.129,1.671,25.921,25.921,0,0,1-1.032,4.113c-2.028,4.75-6.831,6.054-10.193,9.383a16.93,16.93,0,0,0-2.129,2.571,2.02,2.02,0,0,1-.71,1.093V44.445c0.322-.5.013-1.238,0.194-1.992,0.261-1.092.265-2.558,0.645-3.727a41.33,41.33,0,0,1,1.419-4.37A23.276,23.276,0,0,1,59.747,29.6l0.452-.321a12.655,12.655,0,0,1,4.967-2.956c0.53-.177,1.067-0.266,1.548-0.386A5.169,5.169,0,0,0,68.327,25.679Zm16.385,4.37c1.019,0.059,2.486,1.577,3.1,2.185,3.067,3.056,3.236,8.247,2,13.046q-0.032.45-.064,0.9c-0.3,1.083-.542,2.192-0.9,3.278a11.788,11.788,0,0,0-.645,1.928,0.686,0.686,0,0,0,.323.129,3.6,3.6,0,0,1,1.032-.257,5.9,5.9,0,0,1,2.387-.45c0.582,0.144,1.233.38,1.871,0.514v0.257a20.791,20.791,0,0,0-3.548,1.671c-0.578.314-1.17,0.436-1.742,0.771a17.557,17.557,0,0,0-4.129,3.342l-1.161-.578V56.463c0.763-.538,1.587-2.347,2.129-3.213,2.635-4.214,4.352-10.167,1.935-15.81a13.117,13.117,0,0,0-2.387-3.663c-0.355-.371-1.506-1.131-1.548-1.671A6.824,6.824,0,0,0,84.713,30.049ZM19.429,35h0.452c0.214,0.355,1.335,1.843,1.226,2.121a3.444,3.444,0,0,1-.9.9,19.888,19.888,0,0,0-1.742,1.992,19.889,19.889,0,0,0-3.032,6.684l-0.064,1.093a11.333,11.333,0,0,0,.387,5.141c0.282,0.966.255,1.835,0.581,2.7,0.163,0.432.314,0.937,0.516,1.414a4.745,4.745,0,0,1,.645,1.542,7.1,7.1,0,0,0-2.258,2.185,0.221,0.221,0,0,1-.129-0.064A5.123,5.123,0,0,1,13.946,60c-0.142-.094-0.295-0.037-0.452-0.129-0.964-.562-1.909-1.372-2.838-1.992-0.4-.266-1.488-0.638-1.613-1.093a0.182,0.182,0,0,0,.065-0.064,8.7,8.7,0,0,1,3.225,0c0.938,0.279,1.526,1.023,2.645,1.093a1.006,1.006,0,0,0,.064-0.321,4.83,4.83,0,0,1-.387-1.478C14.34,55.035,14.284,54,14.01,52.864c-1.072-4.442-.705-10.6,1.161-14.075a9.78,9.78,0,0,1,2.645-2.764A6.737,6.737,0,0,0,19.429,35Zm63.219,0.386h0.258c0.366,0.555.965,0.991,1.355,1.542a15.231,15.231,0,0,1,1.484,2.956c1.205,2.934.14,7.142-.839,9.447a14.7,14.7,0,0,1-1.29,2.506,1.331,1.331,0,0,1-.581.771V52.542H82.971a13.048,13.048,0,0,0-1.226-4.434c-0.534-1.582-.863-3.411-1.226-5.013a8.434,8.434,0,0,1,.194-2.249,18.378,18.378,0,0,1,.774-3.149A17.512,17.512,0,0,0,82.648,35.383Zm-10.9,1.671c0.232,0.076.236,0.1,0.258,0.386a17.148,17.148,0,0,0-.387,1.864c-0.445,1.368-.687,2.629-1.226,3.856a14.126,14.126,0,0,1-8.9,7.455c-1.65.51-3.285,0.448-4.838,0.835a0.967,0.967,0,0,1-.129-0.257,5.812,5.812,0,0,0,.258-1.478l0.9-3.149a13.9,13.9,0,0,1,5.483-7.2,16.827,16.827,0,0,1,5.161-1.992C69.264,37.153,71.162,37.42,71.746,37.054Zm-39.609.064c7.209,0.638,12.044,3.988,14.257,9.833a14.193,14.193,0,0,1,.968,4.306,1.392,1.392,0,0,1-.452.064c-0.455-.206-1.543.04-2.258-0.129a26.624,26.624,0,0,1-2.967-.643c-4.2-1.528-6.776-4.414-8.515-8.419C32.78,41.234,31.625,38.317,32.137,37.118Zm72.186,0.707a9.839,9.839,0,0,1-.645,3.085c-1.06,3.178-2.11,5.044-4.709,6.684-0.787.5-2.552,1.623-3.677,1.478a12.367,12.367,0,0,1-1.935.128c-0.6-.143-1.453-0.243-2-0.386a4.657,4.657,0,0,1-1.29-.193A0.231,0.231,0,0,1,90,48.494a6.276,6.276,0,0,0,1.484-1.864c0.431-.64,1.055-1.228,1.484-1.864,0.34-.505.559-0.981,0.9-1.478,0.376-.543,1.02-0.957,1.419-1.478C97.2,39.321,100.363,38.3,104.323,37.825ZM21.751,39.818c0.527,0.221.992,2.044,1.226,2.7,1.467,4.1-.637,8.378-2.193,11.375-0.395.76-.493,2.993-1.419,3.085A15.586,15.586,0,0,1,18.913,43.8a15.936,15.936,0,0,1,1.677-2.7C20.929,40.65,21.43,40.295,21.751,39.818ZM0.141,41.553a11.26,11.26,0,0,1,3.613,1.285,16.086,16.086,0,0,1,6.709,6.234c0.75,1.208,1.339,2.474,2.064,3.663a8.574,8.574,0,0,0,.968,1.671,0.22,0.22,0,0,1-.065.129,5.009,5.009,0,0,1-1.548.129,7.532,7.532,0,0,1-4.258-.386A10.082,10.082,0,0,1,6.2,53.764C3.226,51.909,1.775,49.909.592,46.244,0.277,45.269-.245,42.683.141,41.553Zm74.637,1.414a0.313,0.313,0,0,1,.194.064,8.1,8.1,0,0,1,2.129,1.8c2.355,2.346,4.573,6.976,3.419,11.375a14.819,14.819,0,0,1-.452,2.121,9.219,9.219,0,0,0-2.258-.578c-1.67-.509-3.52-0.828-5.1-1.478a12.49,12.49,0,0,0-.581-2.121c-0.121-.4-0.112-0.923-0.194-1.285a11.19,11.19,0,0,1,.129-2.828,6.557,6.557,0,0,1,.323-1.414A22.3,22.3,0,0,1,74.778,42.967ZM31.3,55.692a8.187,8.187,0,0,0-2.129.386c-1.446.373-2.708,0.43-4,.9a9.951,9.951,0,0,1-2.387.771V57.62a2.546,2.546,0,0,1,.064-1.093,8.815,8.815,0,0,1,.71-2.764c1.126-2.907,2.408-5.094,4.9-6.62a6.48,6.48,0,0,1,2.322-1.285,12.272,12.272,0,0,1,1.1,6.684l0.064,0.643c-0.05.209-.2,0.6-0.258,0.836l-0.064.835A2.981,2.981,0,0,0,31.3,55.692Zm67.154-3.535c1.264,0.11,3.024-.141,4.193.321a11.855,11.855,0,0,1-1.226,2.571c-2.049,3.744-4.116,5.6-8.579,6.941a11.136,11.136,0,0,1-2,.514A10.385,10.385,0,0,0,88.2,59.676a4.639,4.639,0,0,1-1.548-1.285,14.165,14.165,0,0,0,1.1-.9c0.936-.655,2.034-1.068,2.968-1.735,1.043-.746,2.016-1.644,3.161-2.314A13.792,13.792,0,0,1,96.9,52.35,6.851,6.851,0,0,0,98.453,52.157ZM0.592,57.427a17.806,17.806,0,0,1,9.16,2.249c0.785,0.458,1.4,1.291,2.129,1.8,0.523,0.364,2.21,1.506,2.258,2.185a2.817,2.817,0,0,0-.193,1.35,21.959,21.959,0,0,0-.129,4.177,1.019,1.019,0,0,1-.322.064,6.371,6.371,0,0,0-1.484-.321A34.048,34.048,0,0,1,8.72,67.71,14.982,14.982,0,0,1,2.2,62.054c-0.255-.39-0.342-0.813-0.581-1.221A7.883,7.883,0,0,1,.4,57.555,0.706,0.706,0,0,0,.592,57.427ZM5.946,77.864a7.171,7.171,0,0,1,2.129.386,5.081,5.081,0,0,1,3.161,4.563,0.854,0.854,0,0,0,.516.129,3.2,3.2,0,0,1,.839,0,7.229,7.229,0,0,1,2.709.129,3.23,3.23,0,0,1,.452,1.414,1.184,1.184,0,0,1-.387.064,5.9,5.9,0,0,0-1.29.064l-0.194-.129a3.811,3.811,0,0,0-1.161.129L12.4,84.548a4.026,4.026,0,0,0-1.355.064,5.935,5.935,0,0,1-2.258,2.571,4.565,4.565,0,0,1-2.58.45,3.327,3.327,0,0,1-.71.064A5.346,5.346,0,0,1,1.173,83.07c-0.311-1.895,1.665-4.25,2.967-4.82C4.626,78.037,5.525,78.121,5.946,77.864Z"/>
  <path id="Coffee_1" data-name="Coffee 1" class="cls-4" d="M73.343,64.4a9.919,9.919,0,0,1-2.762-1.252,9.42,9.42,0,0,0-1.088-.25c-1.107-.389-2.421-0.821-3.6-1.168l-1-.084c-0.491-.124-1.094-0.3-1.59-0.417h-1a34.777,34.777,0,0,0-11.97-.417l-0.5-.084c-0.946.185-1.751,0.161-2.428,0.334l-1.339.084c-0.676.17-1.614,0.364-2.26,0.584-2.657.906-7.661,1.538-7.869,4.673,0.177,0.227.171,0.583,0.335,0.835a5.421,5.421,0,0,1,.921,1H37.1v0.084a8.442,8.442,0,0,1-4.185-2.587,1.96,1.96,0,0,1-.419-2.253c1.157-1.848,4.22-2.492,6.529-3.171,1.169-.344,2.342-0.393,3.516-0.668h1c1.5-.349,3.011-0.207,4.6-0.5,0.655-.121,1.874.125,2.762,0a18.186,18.186,0,0,1,4.939.25c0.512,0.1,1.579-.117,2.093,0,2.224,0.5,4.673.828,6.7,1.419l1.59,0.25a43.2,43.2,0,0,1,5.441,2.253C72.239,63.613,73.23,63.663,73.343,64.4Zm-21.932-2.17c3.506,0.051,5.591,1.38,7.785,2.921,0.577,0.405,1.155,1.064,1.758,1.419,0.719,0.423,1.487.766,2.176,1.168L65.14,68.4c0.752,0.189,1.4-.285,1.591.334H66.647v0.084c-1.042.127-1.778,0.207-2.762,0.417a1.085,1.085,0,0,1-.5-0.084,1.944,1.944,0,0,0-.67.084c-0.437.014-.936-0.1-1.339-0.084a7.52,7.52,0,0,1-2.176-.668c-0.627-.229-1.175-0.239-1.758-0.5A39.889,39.889,0,0,0,52.751,65.9c-2.167-.666-4.48-0.22-4.269,2.337a2.957,2.957,0,0,1,1.088,1.252,1.484,1.484,0,0,1-.837.167,3.427,3.427,0,0,1-1.674-.083c-1.6-.407-3.492-0.831-3.6-2.671a3.614,3.614,0,0,0,.084-0.668,4.806,4.806,0,0,1,.5-1c0.646-.951,2.757-1.881,3.934-2.337l0.921-.083c0.285-.093.8-0.339,1.088-0.417A5.878,5.878,0,0,0,51.412,62.226Z"/>
</svg>
